<svg width="106" height="30" viewBox="0 0 106 30" fill="none" xmlns="http://www.w3.org/2000/svg">
<path d="M33.5286 16.46C35.9284 16.46 37.6701 18.2591 37.6701 20.738C37.6701 23.2768 35.9671 25.0498 33.5286 25.0498C31.2292 25.0498 29.6233 23.2768 29.6233 20.738C29.6233 18.2192 31.2292 16.46 33.5286 16.46ZM41.0576 14.1242C39.5884 12.4569 37.5051 11.5387 35.2108 11.5387C32.9913 11.5387 31.1299 12.4036 29.5443 14.0432V7.08614C29.5443 7.04206 29.5311 6.9309 29.4874 6.9309H23.78C23.736 6.9309 23.6774 7.04206 23.6774 7.08614V29.414C23.6774 29.4578 23.736 29.4472 23.78 29.4472H29.4874C29.5311 29.4472 29.5443 29.4578 29.5443 29.414V27.4661C31.1299 29.1053 32.9912 29.9704 35.2108 29.9704C37.5062 29.9704 39.5842 29.0508 41.0522 27.3806C42.5195 25.7112 43.3306 23.3521 43.3306 20.738C43.3306 18.1383 42.5251 15.7895 41.0576 14.1242Z" fill="black"/>
<path d="M50.7532 18.6681C51.3846 17.0825 52.7528 16.1923 54.3501 16.1923C55.9267 16.1923 57.1131 17.0825 57.6198 18.6681H50.7532ZM54.4341 11.5073C49.105 11.5073 45.2373 15.3671 45.2373 20.6849C45.2373 26.0544 49.219 29.9516 54.7051 29.9516C57.34 29.9516 60.3744 28.8052 61.9208 27.2254C61.9507 27.1945 61.9507 27.145 61.9204 27.1142L58.5428 23.7029C58.5132 23.6727 58.4656 23.6713 58.4344 23.6989C57.4208 24.5824 55.8902 25.1304 54.5351 25.1304C52.8365 25.1304 51.4377 24.0593 50.8621 22.3151H63.2143C63.2579 22.3151 63.2936 22.3027 63.2936 22.259C63.2936 15.5122 59.9817 11.5073 54.4341 11.5073Z" fill="black"/>
<path d="M70.4212 7.01417C70.4212 6.9704 70.3857 6.93489 70.342 6.93489H64.6336C64.5898 6.93489 64.5543 6.9704 64.5543 7.01417V29.5304C64.5543 29.5742 64.5898 29.6097 64.6336 29.6097H70.342C70.3857 29.6097 70.4212 29.5742 70.4212 29.5304V7.01417Z" fill="black"/>
<path d="M75.499 10.3195C77.1809 10.3195 78.5495 8.92028 78.5495 7.20016C78.5495 5.54601 77.1527 4.14857 75.499 4.14857C73.8081 4.14857 72.3794 5.54601 72.3794 7.20016C72.3794 8.92028 73.7787 10.3195 75.499 10.3195Z" fill="black"/>
<path d="M78.3495 11.9298C78.3495 11.886 78.3139 11.8505 78.2702 11.8505H72.5618C72.5181 11.8505 72.4825 11.886 72.4825 11.9298V29.3719C72.4825 29.4157 72.5181 29.4512 72.5618 29.4512H78.2702C78.3139 29.4512 78.3495 29.4157 78.3495 29.3719V11.9298Z" fill="black"/>
<path d="M98.4741 29.3567L92.2017 20.443L98.1798 12.0211C98.197 11.997 98.1993 11.9424 98.1858 11.9161C98.172 11.8898 98.145 11.8506 98.1152 11.8506H92.1387C92.1131 11.8506 92.0888 11.8858 92.074 11.9068L89.1335 16.0823L86.1916 11.9011C86.1767 11.8801 86.1526 11.8506 86.1269 11.8506H80.0485C80.0188 11.8506 79.9917 11.8896 79.978 11.916C79.9646 11.9421 79.9663 11.9849 79.9834 12.0094L85.9629 20.5384L79.6801 29.3685C79.6628 29.3927 79.6604 29.4033 79.6741 29.4297C79.6877 29.4561 79.7148 29.4514 79.7446 29.4514H85.7221C85.7478 29.4514 85.7717 29.4615 85.7866 29.4404L89.0318 24.8819L92.2418 29.4346C92.2567 29.4558 92.281 29.4514 92.3068 29.4514H98.4197H98.4219C98.4666 29.4514 98.5021 29.4387 98.5021 29.3946C98.5021 29.3705 98.4912 29.3713 98.4741 29.3567Z" fill="black"/>
<path d="M102.955 13.878H102.162V14.988H103.029C103.427 14.988 103.665 14.7469 103.665 14.4327C103.665 14.1013 103.427 13.878 103.029 13.878H102.955ZM103.546 15.3562L104.413 16.5736H103.682L102.902 15.4637H102.162V16.5736H101.686V13.4023H103.053C103.801 13.4023 104.293 13.76 104.293 14.4035C104.293 14.9314 103.988 15.2287 103.546 15.3562ZM102.866 12.2778C101.297 12.2778 100.109 13.526 100.109 15.0546C100.109 16.5823 101.287 17.8142 102.851 17.8142C104.42 17.8142 105.609 16.5663 105.609 15.0373C105.609 13.5095 104.429 12.2778 102.866 12.2778ZM102.851 18.1207C101.127 18.1207 99.7855 16.7362 99.7855 15.0546C99.7855 13.3735 101.144 11.973 102.866 11.973C104.59 11.973 105.932 13.3571 105.932 15.0373C105.932 16.7189 104.574 18.1207 102.851 18.1207Z" fill="black"/>
<path d="M21.7602 11.8557C21.7602 11.8213 21.7379 11.7908 21.7054 11.7802C21.6722 11.7699 21.637 11.7816 21.6169 11.8095C21.0817 12.5543 17.3087 14.8269 15.8727 15.6823C15.8489 15.6968 15.8748 15.7226 15.8748 15.7504V19.0685C15.8748 22.3264 13.8466 24.6016 10.9437 24.6016C8.0594 24.6016 6.04372 22.3264 6.04372 19.0685V7.05972C6.04372 7.01579 5.9294 6.93508 5.88563 6.93508H0.0199839C-0.0239387 6.93508 0.0182394 7.01579 0.0182394 7.05972V19.3398C0.0182394 22.3632 1.07302 25.0903 3.05841 27.0193C5.03667 28.9414 7.80586 30 10.8901 30C17.3039 30 21.7736 25.6161 21.7736 19.3398L21.7602 11.8557Z" fill="black"/>
<path d="M23.0871 4.1487L19.4746 0.237206C19.3299 0.0841913 19.1348 -7.62939e-06 18.9263 -7.62939e-06C18.7335 -7.62939e-06 18.5499 0.0734091 18.4092 0.206445L14.3679 4.02058C14.1449 4.22956 14.0713 4.54971 14.18 4.83687C14.2906 5.12181 14.5987 5.31193 14.9021 5.32145L15.8747 5.34777V14.496C15.8747 14.5247 15.8497 14.5512 15.8746 14.565C15.8866 14.5718 15.8799 14.5753 15.8933 14.5753C15.9075 14.5753 15.9117 14.5712 15.9243 14.5636C16.4858 14.22 16.9937 13.9177 17.4895 13.6257C18.3918 13.094 19.3628 12.5444 20.6122 11.7303C21.2953 11.3071 21.7416 10.6407 21.7416 9.94806V5.51109L22.5774 5.41801L22.5787 5.41833C22.8717 5.41833 23.1199 5.24803 23.2431 4.97387C23.3674 4.69749 23.2997 4.37338 23.0871 4.1487Z" fill="#FF6200"/>
</svg>
