<svg width="38" height="43" viewBox="0 0 38 43" fill="none" xmlns="http://www.w3.org/2000/svg">
<path d="M10 9H5.2C4.35131 9 3.53737 9.33714 2.93726 9.93726C2.33714 10.5374 2 11.3513 2 12.2V37.8C2 38.6487 2.33714 39.4626 2.93726 40.0627C3.53737 40.6629 4.35131 41 5.2 41H24.4C25.2487 41 26.0626 40.6629 26.6627 40.0627C27.2629 39.4626 27.6 38.6487 27.6 37.8V34.5" stroke="#FF6200" stroke-width="4" stroke-linecap="round" stroke-linejoin="round"/>
<path d="M26 2H13.2C12.3513 2 11.5374 2.33714 10.9373 2.93726C10.3371 3.53737 10 4.35131 10 5.2V30.8C10 31.6487 10.3371 32.4626 10.9373 33.0627C11.5374 33.6629 12.3513 34 13.2 34H32.4C33.2487 34 34.0626 33.6629 34.6627 33.0627C35.2629 32.4626 35.6 31.6487 35.6 30.8V11.6L26 2Z" stroke="#333333" stroke-width="4" stroke-linecap="round" stroke-linejoin="round"/>
<path d="M26 2V11.6H35.6" stroke="#333333" stroke-width="4" stroke-linecap="round" stroke-linejoin="round"/>
<path d="M29.1999 19.6H16.3999" stroke="#333333" stroke-width="4" stroke-linecap="round" stroke-linejoin="round"/>
<path d="M29.1999 26H16.3999" stroke="#333333" stroke-width="4" stroke-linecap="round" stroke-linejoin="round"/>
<path d="M19.5999 13.2H17.9999H16.3999" stroke="#333333" stroke-width="4" stroke-linecap="round" stroke-linejoin="round"/>
</svg>
