<svg width="31" height="37" viewBox="0 0 31 37" fill="none" xmlns="http://www.w3.org/2000/svg">
<path d="M29 15.5C29 26 15.5 35 15.5 35C15.5 35 2 26 2 15.5C2 11.9196 3.42232 8.4858 5.95406 5.95406C8.4858 3.42232 11.9196 2 15.5 2C19.0804 2 22.5142 3.42232 25.0459 5.95406C27.5777 8.4858 29 11.9196 29 15.5Z" stroke="#333333" stroke-width="4" stroke-linecap="round" stroke-linejoin="round"/>
<path d="M15.5 20C17.9853 20 20 17.9853 20 15.5C20 13.0147 17.9853 11 15.5 11C13.0147 11 11 13.0147 11 15.5C11 17.9853 13.0147 20 15.5 20Z" stroke="#FF6200" stroke-width="4" stroke-linecap="round" stroke-linejoin="round"/>
</svg>
