<svg width="44" height="36" viewBox="0 0 44 36" fill="none" xmlns="http://www.w3.org/2000/svg">
<path d="M30.4444 34V30.4444C30.4444 28.5584 29.6952 26.7497 28.3616 25.4161C27.0281 24.0825 25.2193 23.3333 23.3333 23.3333H9.11111C7.22513 23.3333 5.41639 24.0825 4.0828 25.4161C2.7492 26.7497 2 28.5584 2 30.4444V34" stroke="#333333" stroke-width="4" stroke-linecap="round" stroke-linejoin="round"/>
<path d="M16.2224 16.2222C20.1498 16.2222 23.3336 13.0385 23.3336 9.11111C23.3336 5.18375 20.1498 2 16.2224 2C12.2951 2 9.11133 5.18375 9.11133 9.11111C9.11133 13.0385 12.2951 16.2222 16.2224 16.2222Z" stroke="#333333" stroke-width="4" stroke-linecap="round" stroke-linejoin="round"/>
<path d="M41.1112 34V30.4445C41.11 28.8689 40.5856 27.3383 39.6203 26.093C38.6549 24.8478 37.3034 23.9584 35.7778 23.5645" stroke="#FF6200" stroke-width="4" stroke-linecap="round" stroke-linejoin="round"/>
<path d="M28.6665 2.23114C30.1961 2.62279 31.5519 3.51239 32.5201 4.75969C33.4883 6.007 34.0138 7.54106 34.0138 9.12003C34.0138 10.699 33.4883 12.2331 32.5201 13.4804C31.5519 14.7277 30.1961 15.6173 28.6665 16.0089" stroke="#FF6200" stroke-width="4" stroke-linecap="round" stroke-linejoin="round"/>
</svg>
