<svg width="128" height="34" viewBox="0 0 128 34" fill="none" xmlns="http://www.w3.org/2000/svg">
<path fill-rule="evenodd" clip-rule="evenodd" d="M18.1329 0.0020752C18.329 1.71869 17.6257 3.40976 16.6008 4.65283C15.5284 5.87732 13.8152 6.81281 12.1474 6.6921C11.928 5.04049 12.7741 3.28441 13.7201 2.21313C14.7902 0.997918 16.6484 0.0659113 18.1329 0.0020752ZM23.5961 9.90248C23.4104 10.0104 20.323 11.7943 20.3579 15.433C20.3963 19.8261 24.3261 21.2792 24.3737 21.2943C24.3505 21.3976 23.7586 23.3916 22.2846 25.4158C21.0543 27.1986 19.7648 28.9407 17.7162 28.9721C16.7424 28.9941 16.0855 28.7225 15.4007 28.4405C14.6857 28.1457 13.9417 27.8381 12.7764 27.8381C11.5415 27.8381 10.7639 28.155 10.0141 28.4614C9.36412 28.726 8.73736 28.9813 7.85294 29.0162C5.90304 29.0858 4.4116 27.1138 3.1372 25.3485C0.587233 21.7412 -1.39749 15.1835 1.2639 10.7219C2.55222 8.53406 4.90372 7.12387 7.41654 7.08672C8.5238 7.06467 9.58464 7.47786 10.5155 7.84115C11.227 8.11739 11.8619 8.36344 12.3818 8.36344C12.8391 8.36344 13.4554 8.12667 14.175 7.85044C15.309 7.41519 16.696 6.88129 18.1097 7.02637C19.0753 7.05307 21.8249 7.39546 23.5996 9.90132L23.5961 9.90248ZM86.5723 27.881C87.4904 27.0767 87.9487 26.0321 87.9487 24.7496C87.9487 23.7073 87.6354 22.8345 87.0075 22.1358C86.3773 21.4359 85.3987 20.8243 84.0651 20.302C82.9742 19.8841 82.2243 19.4965 81.8113 19.139C81.3354 18.7513 81.0997 18.258 81.0997 17.6626C81.0997 17.1241 81.3063 16.6691 81.7207 16.2965C82.2081 15.8787 82.8918 15.6698 83.7646 15.6698C84.8695 15.6698 85.8573 15.9019 86.7301 16.3639L87.351 14.3942C86.4155 13.9172 85.2445 13.6781 83.8342 13.6781C82.2535 13.6781 80.9884 14.0727 80.0413 14.8654C79.0895 15.657 78.6147 16.6726 78.6147 17.9122C78.6147 19.8098 79.9703 21.2525 82.6829 22.2368C83.6799 22.5966 84.3937 22.9842 84.8207 23.4032C85.2503 23.8211 85.4649 24.3364 85.4649 24.9481C85.4649 25.6352 85.2049 26.1853 84.685 26.5962C84.1627 27.0059 83.4337 27.2113 82.4994 27.2113C81.2379 27.222 79.9973 26.889 78.9108 26.248L78.3351 28.2629C79.3472 28.8897 80.6843 29.203 82.351 29.203C84.1568 29.203 85.5624 28.762 86.5723 27.8822V27.881ZM45.2575 28.979H47.9015L42.8886 13.8986H39.8081L34.8196 28.979H37.394L38.774 24.55H43.8089L45.2575 28.979ZM42.0621 18.7536L43.3714 22.6906H39.2116L40.4976 18.7536C40.8353 17.5013 41.0814 16.5542 41.2346 15.9124H41.281C41.664 17.4038 41.9229 18.3509 42.0621 18.7536ZM59.1888 27.7928C60.216 26.7192 60.729 25.258 60.729 23.4079C60.729 21.7528 60.2891 20.418 59.4058 19.4036C58.5261 18.388 57.4258 17.8832 56.1074 17.8832C54.422 17.8832 53.1661 18.5296 52.3374 19.8284H52.291L52.1517 18.1048H49.9697C50.03 19.3293 50.0614 20.5225 50.0614 21.6843V33.4093H52.544V27.6814H52.5905C53.2346 28.7098 54.2908 29.2251 55.7637 29.2251C57.1263 29.2251 58.2684 28.7481 59.1888 27.7928ZM57.4641 20.8788C57.9562 21.5659 58.2 22.4387 58.2 23.4972C58.2 24.6463 57.9388 25.5702 57.4176 26.2712C56.8977 26.9723 56.17 27.3239 55.2357 27.3239C54.4383 27.3239 53.7907 27.0512 53.2928 26.5068C52.7937 25.9613 52.5452 25.2939 52.5452 24.5035V22.6894C52.5452 22.4968 52.5836 22.253 52.6613 21.9536C52.7978 21.3384 53.1421 20.7892 53.6362 20.3983C54.1353 20.0037 54.6912 19.8052 55.3029 19.8052C56.2071 19.8052 56.928 20.1627 57.4641 20.8788ZM73.5799 23.409C73.5799 25.258 73.0668 26.7192 72.0384 27.7928C71.1192 28.7481 69.9772 29.2251 68.6146 29.2251C67.1416 29.2251 66.0844 28.7098 65.4424 27.6814H65.396V33.4093H62.9122V21.6843C62.9122 20.5225 62.882 19.3282 62.8216 18.1048H65.0038L65.143 19.8284H65.1895C66.0158 18.5296 67.2728 17.882 68.9592 17.882C70.2767 17.882 71.3769 18.388 72.2591 19.4024C73.1387 20.418 73.5799 21.7528 73.5799 23.4079V23.409ZM71.0508 23.4972C71.0508 22.4387 70.8046 21.5659 70.3137 20.8788C69.7764 20.1627 69.0591 19.8052 68.1549 19.8052C67.5397 19.8052 66.9849 20.0048 66.4858 20.3971C65.988 20.7941 65.6629 21.3117 65.5109 21.9524C65.4431 22.1926 65.4042 22.44 65.3948 22.6894V24.5035C65.3948 25.2928 65.6444 25.9613 66.1412 26.5068C66.639 27.05 67.2867 27.3239 68.0852 27.3239C69.0197 27.3239 69.7484 26.9723 70.2673 26.2712C70.7896 25.5702 71.0508 24.6463 71.0508 23.4972ZM96.1558 19.9189H93.419V25.1976C93.419 26.5405 93.9018 27.2113 94.8675 27.2113C95.312 27.2113 95.6799 27.1742 95.9701 27.0988L96.0398 28.9326C95.55 29.1113 94.907 29.2007 94.1084 29.2007C93.1288 29.2007 92.3627 28.9105 91.8092 28.3291C91.2577 27.7464 90.9815 26.7691 90.9815 25.3972V19.9166H89.3508V18.1037H90.9815V16.112L93.419 15.3959V18.1037H96.1558V19.9189ZM107.03 27.5688C108.01 26.4964 108.502 25.1233 108.502 23.452C108.502 21.8271 108.026 20.4993 107.074 19.4709C106.078 18.4124 104.759 17.8832 103.12 17.8832C101.418 17.8832 100.065 18.4205 99.0633 19.4941C98.0581 20.5677 97.5579 21.9478 97.5579 23.633C97.5579 25.2429 98.0442 26.5788 99.018 27.6373C99.9906 28.6958 101.296 29.2251 102.935 29.2251C104.637 29.2251 106.002 28.6738 107.03 27.5688ZM105.26 20.9508C105.706 21.6681 105.926 22.5281 105.926 23.5309C105.926 24.5326 105.695 25.4019 105.238 26.1319C104.701 27.014 103.957 27.4551 103.009 27.4551C102.042 27.4551 101.292 27.0233 100.754 26.1552C100.309 25.439 100.089 24.579 100.089 23.5762C100.089 22.5432 100.309 21.6692 100.754 20.9508C101.275 20.0838 102.033 19.6508 103.032 19.6508C103.995 19.6508 104.739 20.0826 105.26 20.9508ZM116.571 20.23C116.312 20.1845 116.051 20.162 115.788 20.1627C114.914 20.1627 114.24 20.4842 113.764 21.126C113.351 21.6924 113.144 22.4085 113.144 23.2732V28.979H110.663L110.686 21.5299C110.686 20.2764 110.655 19.1355 110.593 18.106H112.756L112.846 20.1871H112.915C113.152 19.5047 113.583 18.9063 114.155 18.4646C114.678 18.0863 115.305 17.8823 115.95 17.882C116.179 17.882 116.386 17.8982 116.571 17.9261V20.23ZM127.582 24.1228C127.648 23.7615 127.678 23.3945 127.672 23.0272C127.672 21.6704 127.343 20.5283 126.687 19.6056C125.859 18.4426 124.641 17.8611 123.03 17.8611C121.391 17.8611 120.087 18.4426 119.124 19.6056C118.202 20.6943 117.743 22.0592 117.743 23.6992C117.743 25.3705 118.237 26.7007 119.225 27.6919C120.215 28.6842 121.574 29.1798 123.307 29.1798C124.747 29.1798 125.995 28.957 127.053 28.5078L126.664 26.8318C125.76 27.1742 124.753 27.346 123.651 27.346C122.654 27.346 121.842 27.0918 121.214 26.5858C120.523 26.0182 120.163 25.1976 120.134 24.1228H127.582ZM124.823 20.5434C125.159 21.0657 125.322 21.6843 125.306 22.4004H120.134C120.21 21.6692 120.455 21.0425 120.869 20.5202C121.373 19.8632 122.034 19.5359 122.845 19.5359C123.733 19.5359 124.393 19.8725 124.823 20.5434Z" fill="black"/>
<path d="M36.2856 9V0.46875H38.6938C39.436 0.46875 40.0923 0.632812 40.6626 0.960938C41.2329 1.28906 41.6724 1.75586 41.981 2.36133C42.2935 2.9668 42.4517 3.66211 42.4556 4.44727V4.99219C42.4556 5.79688 42.2993 6.50195 41.9868 7.10742C41.6782 7.71289 41.2349 8.17773 40.6567 8.50195C40.0825 8.82617 39.4126 8.99219 38.647 9H36.2856ZM37.4106 1.39453V8.08008H38.5942C39.4614 8.08008 40.1353 7.81055 40.6157 7.27148C41.1001 6.73242 41.3423 5.96484 41.3423 4.96875V4.4707C41.3423 3.50195 41.1138 2.75 40.6567 2.21484C40.2036 1.67578 39.5591 1.40234 38.7231 1.39453H37.4106Z" fill="black"/>
<path d="M45.1685 9H44.0845V2.66016H45.1685V9ZM43.9966 0.978516C43.9966 0.802734 44.0493 0.654297 44.1548 0.533203C44.2642 0.412109 44.4243 0.351562 44.6353 0.351562C44.8462 0.351562 45.0063 0.412109 45.1157 0.533203C45.2251 0.654297 45.2798 0.802734 45.2798 0.978516C45.2798 1.1543 45.2251 1.30078 45.1157 1.41797C45.0063 1.53516 44.8462 1.59375 44.6353 1.59375C44.4243 1.59375 44.2642 1.53516 44.1548 1.41797C44.0493 1.30078 43.9966 1.1543 43.9966 0.978516Z" fill="black"/>
<path d="M50.6001 7.31836C50.6001 7.02539 50.4888 6.79883 50.2661 6.63867C50.0474 6.47461 49.6626 6.33398 49.1118 6.2168C48.5649 6.09961 48.1294 5.95898 47.8052 5.79492C47.4849 5.63086 47.2466 5.43555 47.0903 5.20898C46.938 4.98242 46.8618 4.71289 46.8618 4.40039C46.8618 3.88086 47.0806 3.44141 47.5181 3.08203C47.9595 2.72266 48.522 2.54297 49.2056 2.54297C49.9243 2.54297 50.5063 2.72852 50.9517 3.09961C51.4009 3.4707 51.6255 3.94531 51.6255 4.52344H50.5356C50.5356 4.22656 50.4087 3.9707 50.1548 3.75586C49.9048 3.54102 49.5884 3.43359 49.2056 3.43359C48.811 3.43359 48.5024 3.51953 48.2798 3.69141C48.0571 3.86328 47.9458 4.08789 47.9458 4.36523C47.9458 4.62695 48.0493 4.82422 48.2563 4.95703C48.4634 5.08984 48.8364 5.2168 49.3755 5.33789C49.9185 5.45898 50.3579 5.60352 50.6938 5.77148C51.0298 5.93945 51.2778 6.14258 51.438 6.38086C51.6021 6.61523 51.6841 6.90234 51.6841 7.24219C51.6841 7.80859 51.4575 8.26367 51.0044 8.60742C50.5513 8.94727 49.9634 9.11719 49.2407 9.11719C48.7329 9.11719 48.2837 9.02734 47.8931 8.84766C47.5024 8.66797 47.1958 8.41797 46.9731 8.09766C46.7544 7.77344 46.645 7.42383 46.645 7.04883H47.729C47.7485 7.41211 47.8931 7.70117 48.1626 7.91602C48.436 8.12695 48.7954 8.23242 49.2407 8.23242C49.6509 8.23242 49.979 8.15039 50.2251 7.98633C50.4751 7.81836 50.6001 7.5957 50.6001 7.31836Z" fill="black"/>
<path d="M58.4517 5.90039C58.4517 6.86523 58.231 7.64258 57.7896 8.23242C57.3481 8.82227 56.7505 9.11719 55.9966 9.11719C55.2271 9.11719 54.6216 8.87305 54.1802 8.38477V11.4375H53.0962V2.66016H54.0864L54.1392 3.36328C54.5806 2.81641 55.1938 2.54297 55.979 2.54297C56.7407 2.54297 57.3423 2.83008 57.7837 3.4043C58.229 3.97852 58.4517 4.77734 58.4517 5.80078V5.90039ZM57.3677 5.77734C57.3677 5.0625 57.2153 4.49805 56.9106 4.08398C56.606 3.66992 56.188 3.46289 55.6567 3.46289C55.0005 3.46289 54.5083 3.75391 54.1802 4.33594V7.36523C54.5044 7.94336 55.0005 8.23242 55.6685 8.23242C56.188 8.23242 56.6001 8.02734 56.9048 7.61719C57.2134 7.20312 57.3677 6.58984 57.3677 5.77734Z" fill="black"/>
<path d="M59.5474 5.77148C59.5474 5.15039 59.6685 4.5918 59.9106 4.0957C60.1567 3.59961 60.4966 3.2168 60.9302 2.94727C61.3677 2.67773 61.8657 2.54297 62.4243 2.54297C63.2876 2.54297 63.9849 2.8418 64.5161 3.43945C65.0513 4.03711 65.3188 4.83203 65.3188 5.82422V5.90039C65.3188 6.51758 65.1997 7.07227 64.9614 7.56445C64.7271 8.05273 64.3892 8.43359 63.9478 8.70703C63.5103 8.98047 63.0063 9.11719 62.436 9.11719C61.5767 9.11719 60.8794 8.81836 60.3442 8.2207C59.813 7.62305 59.5474 6.83203 59.5474 5.84766V5.77148ZM60.6372 5.90039C60.6372 6.60352 60.7993 7.16797 61.1235 7.59375C61.4517 8.01953 61.8892 8.23242 62.436 8.23242C62.9868 8.23242 63.4243 8.01758 63.7485 7.58789C64.0728 7.1543 64.2349 6.54883 64.2349 5.77148C64.2349 5.07617 64.0688 4.51367 63.7368 4.08398C63.4087 3.65039 62.9712 3.43359 62.4243 3.43359C61.8892 3.43359 61.4575 3.64648 61.1294 4.07227C60.8013 4.49805 60.6372 5.10742 60.6372 5.90039Z" fill="black"/>
<path d="M67.7036 2.66016L67.7388 3.45703C68.2231 2.84766 68.856 2.54297 69.6372 2.54297C70.9771 2.54297 71.6528 3.29883 71.6646 4.81055V9H70.5806V4.80469C70.5767 4.34766 70.4712 4.00977 70.2642 3.79102C70.061 3.57227 69.7427 3.46289 69.3091 3.46289C68.9575 3.46289 68.6489 3.55664 68.3833 3.74414C68.1177 3.93164 67.9106 4.17773 67.7622 4.48242V9H66.6782V2.66016H67.7036Z" fill="black"/>
<path d="M74.4771 9H73.3872V2.66016H74.4771V9ZM74.4888 0.00585938H75.8013L74.231 1.72852H73.3579L74.4888 0.00585938Z" fill="black"/>
<path d="M78.356 7.5293L79.9263 2.66016H81.0337L78.7603 9H77.9341L75.6372 2.66016H76.7446L78.356 7.5293Z" fill="black"/>
<path d="M84.6255 9.11719C83.7661 9.11719 83.0669 8.83594 82.5278 8.27344C81.9888 7.70703 81.7192 6.95117 81.7192 6.00586V5.80664C81.7192 5.17773 81.8384 4.61719 82.0767 4.125C82.3188 3.62891 82.6548 3.24219 83.0845 2.96484C83.5181 2.68359 83.9868 2.54297 84.4907 2.54297C85.3149 2.54297 85.9556 2.81445 86.4126 3.35742C86.8696 3.90039 87.0981 4.67773 87.0981 5.68945V6.14062H82.8032C82.8188 6.76562 83.0005 7.27148 83.3481 7.6582C83.6997 8.04102 84.145 8.23242 84.6841 8.23242C85.0669 8.23242 85.3911 8.1543 85.6567 7.99805C85.9224 7.8418 86.1548 7.63477 86.354 7.37695L87.0161 7.89258C86.4849 8.70898 85.688 9.11719 84.6255 9.11719ZM84.4907 3.43359C84.0532 3.43359 83.686 3.59375 83.3892 3.91406C83.0923 4.23047 82.9087 4.67578 82.8384 5.25H86.0142V5.16797C85.9829 4.61719 85.8345 4.19141 85.5688 3.89062C85.3032 3.58594 84.9438 3.43359 84.4907 3.43359Z" fill="black"/>
<path d="M89.5356 9H88.4517V0H89.5356V9Z" fill="black"/>
<path d="M95.2778 2.66016L95.313 3.45703C95.7974 2.84766 96.4302 2.54297 97.2114 2.54297C98.5513 2.54297 99.2271 3.29883 99.2388 4.81055V9H98.1548V4.80469C98.1509 4.34766 98.0454 4.00977 97.8384 3.79102C97.6353 3.57227 97.3169 3.46289 96.8833 3.46289C96.5317 3.46289 96.2231 3.55664 95.9575 3.74414C95.6919 3.93164 95.4849 4.17773 95.3364 4.48242V9H94.2524V2.66016H95.2778Z" fill="black"/>
<path d="M104.788 9C104.725 8.875 104.674 8.65234 104.635 8.33203C104.131 8.85547 103.53 9.11719 102.831 9.11719C102.206 9.11719 101.692 8.94141 101.29 8.58984C100.891 8.23438 100.692 7.78516 100.692 7.24219C100.692 6.58203 100.942 6.07031 101.442 5.70703C101.946 5.33984 102.653 5.15625 103.563 5.15625H104.618V4.6582C104.618 4.2793 104.504 3.97852 104.278 3.75586C104.051 3.5293 103.717 3.41602 103.276 3.41602C102.889 3.41602 102.565 3.51367 102.303 3.70898C102.042 3.9043 101.911 4.14062 101.911 4.41797H100.821C100.821 4.10156 100.932 3.79688 101.155 3.50391C101.381 3.20703 101.686 2.97266 102.069 2.80078C102.456 2.62891 102.879 2.54297 103.34 2.54297C104.071 2.54297 104.643 2.72656 105.057 3.09375C105.471 3.45703 105.686 3.95898 105.702 4.59961V7.51758C105.702 8.09961 105.776 8.5625 105.924 8.90625V9H104.788ZM102.989 8.17383C103.329 8.17383 103.651 8.08594 103.956 7.91016C104.26 7.73438 104.481 7.50586 104.618 7.22461V5.92383H103.768C102.44 5.92383 101.776 6.3125 101.776 7.08984C101.776 7.42969 101.889 7.69531 102.116 7.88672C102.342 8.07812 102.633 8.17383 102.989 8.17383Z" fill="black"/>
</svg>
