<svg width="137" height="33" viewBox="0 0 137 33" fill="none" xmlns="http://www.w3.org/2000/svg">
<path d="M36.7601 9V0.46875H39.1683C39.9105 0.46875 40.5668 0.632812 41.1371 0.960938C41.7074 1.28906 42.1469 1.75586 42.4554 2.36133C42.7679 2.9668 42.9261 3.66211 42.9301 4.44727V4.99219C42.9301 5.79688 42.7738 6.50195 42.4613 7.10742C42.1527 7.71289 41.7094 8.17773 41.1312 8.50195C40.557 8.82617 39.8871 8.99219 39.1215 9H36.7601ZM37.8851 1.39453V8.08008H39.0687C39.9359 8.08008 40.6097 7.81055 41.0902 7.27148C41.5746 6.73242 41.8168 5.96484 41.8168 4.96875V4.4707C41.8168 3.50195 41.5883 2.75 41.1312 2.21484C40.6781 1.67578 40.0336 1.40234 39.1976 1.39453H37.8851Z" fill="white"/>
<path d="M45.6429 9H44.559V2.66016H45.6429V9ZM44.4711 0.978516C44.4711 0.802734 44.5238 0.654297 44.6293 0.533203C44.7386 0.412109 44.8988 0.351562 45.1097 0.351562C45.3207 0.351562 45.4808 0.412109 45.5902 0.533203C45.6996 0.654297 45.7543 0.802734 45.7543 0.978516C45.7543 1.1543 45.6996 1.30078 45.5902 1.41797C45.4808 1.53516 45.3207 1.59375 45.1097 1.59375C44.8988 1.59375 44.7386 1.53516 44.6293 1.41797C44.5238 1.30078 44.4711 1.1543 44.4711 0.978516Z" fill="white"/>
<path d="M51.0746 7.31836C51.0746 7.02539 50.9633 6.79883 50.7406 6.63867C50.5219 6.47461 50.1371 6.33398 49.5863 6.2168C49.0394 6.09961 48.6039 5.95898 48.2797 5.79492C47.9594 5.63086 47.7211 5.43555 47.5648 5.20898C47.4125 4.98242 47.3363 4.71289 47.3363 4.40039C47.3363 3.88086 47.5551 3.44141 47.9926 3.08203C48.434 2.72266 48.9965 2.54297 49.6801 2.54297C50.3988 2.54297 50.9808 2.72852 51.4261 3.09961C51.8754 3.4707 52.1 3.94531 52.1 4.52344H51.0101C51.0101 4.22656 50.8832 3.9707 50.6293 3.75586C50.3793 3.54102 50.0629 3.43359 49.6801 3.43359C49.2855 3.43359 48.9769 3.51953 48.7543 3.69141C48.5316 3.86328 48.4203 4.08789 48.4203 4.36523C48.4203 4.62695 48.5238 4.82422 48.7308 4.95703C48.9379 5.08984 49.3109 5.2168 49.85 5.33789C50.3929 5.45898 50.8324 5.60352 51.1683 5.77148C51.5043 5.93945 51.7523 6.14258 51.9125 6.38086C52.0765 6.61523 52.1586 6.90234 52.1586 7.24219C52.1586 7.80859 51.932 8.26367 51.4789 8.60742C51.0258 8.94727 50.4379 9.11719 49.7152 9.11719C49.2074 9.11719 48.7582 9.02734 48.3676 8.84766C47.9769 8.66797 47.6703 8.41797 47.4476 8.09766C47.2289 7.77344 47.1195 7.42383 47.1195 7.04883H48.2035C48.223 7.41211 48.3676 7.70117 48.6371 7.91602C48.9105 8.12695 49.2699 8.23242 49.7152 8.23242C50.1254 8.23242 50.4535 8.15039 50.6996 7.98633C50.9496 7.81836 51.0746 7.5957 51.0746 7.31836Z" fill="white"/>
<path d="M58.9261 5.90039C58.9261 6.86523 58.7054 7.64258 58.264 8.23242C57.8226 8.82227 57.225 9.11719 56.4711 9.11719C55.7015 9.11719 55.0961 8.87305 54.6547 8.38477V11.4375H53.5707V2.66016H54.5609L54.6136 3.36328C55.0551 2.81641 55.6683 2.54297 56.4535 2.54297C57.2152 2.54297 57.8168 2.83008 58.2582 3.4043C58.7035 3.97852 58.9261 4.77734 58.9261 5.80078V5.90039ZM57.8422 5.77734C57.8422 5.0625 57.6898 4.49805 57.3851 4.08398C57.0804 3.66992 56.6625 3.46289 56.1312 3.46289C55.475 3.46289 54.9828 3.75391 54.6547 4.33594V7.36523C54.9789 7.94336 55.475 8.23242 56.1429 8.23242C56.6625 8.23242 57.0746 8.02734 57.3793 7.61719C57.6879 7.20312 57.8422 6.58984 57.8422 5.77734Z" fill="white"/>
<path d="M60.0219 5.77148C60.0219 5.15039 60.1429 4.5918 60.3851 4.0957C60.6312 3.59961 60.9711 3.2168 61.4047 2.94727C61.8422 2.67773 62.3402 2.54297 62.8988 2.54297C63.7621 2.54297 64.4594 2.8418 64.9906 3.43945C65.5258 4.03711 65.7933 4.83203 65.7933 5.82422V5.90039C65.7933 6.51758 65.6742 7.07227 65.4359 7.56445C65.2015 8.05273 64.8636 8.43359 64.4222 8.70703C63.9847 8.98047 63.4808 9.11719 62.9105 9.11719C62.0511 9.11719 61.3539 8.81836 60.8187 8.2207C60.2875 7.62305 60.0219 6.83203 60.0219 5.84766V5.77148ZM61.1117 5.90039C61.1117 6.60352 61.2738 7.16797 61.598 7.59375C61.9261 8.01953 62.3636 8.23242 62.9105 8.23242C63.4613 8.23242 63.8988 8.01758 64.223 7.58789C64.5472 7.1543 64.7094 6.54883 64.7094 5.77148C64.7094 5.07617 64.5433 4.51367 64.2113 4.08398C63.8832 3.65039 63.4457 3.43359 62.8988 3.43359C62.3636 3.43359 61.932 3.64648 61.6039 4.07227C61.2758 4.49805 61.1117 5.10742 61.1117 5.90039Z" fill="white"/>
<path d="M68.1781 2.66016L68.2133 3.45703C68.6976 2.84766 69.3304 2.54297 70.1117 2.54297C71.4515 2.54297 72.1273 3.29883 72.139 4.81055V9H71.0551V4.80469C71.0511 4.34766 70.9457 4.00977 70.7386 3.79102C70.5355 3.57227 70.2172 3.46289 69.7836 3.46289C69.432 3.46289 69.1234 3.55664 68.8578 3.74414C68.5922 3.93164 68.3851 4.17773 68.2367 4.48242V9H67.1527V2.66016H68.1781Z" fill="white"/>
<path d="M74.9515 9H73.8617V2.66016H74.9515V9ZM74.9633 0.00585938H76.2758L74.7054 1.72852H73.8324L74.9633 0.00585938Z" fill="white"/>
<path d="M78.8304 7.5293L80.4008 2.66016H81.5082L79.2347 9H78.4086L76.1117 2.66016H77.2191L78.8304 7.5293Z" fill="white"/>
<path d="M85.1 9.11719C84.2406 9.11719 83.5414 8.83594 83.0023 8.27344C82.4633 7.70703 82.1937 6.95117 82.1937 6.00586V5.80664C82.1937 5.17773 82.3129 4.61719 82.5511 4.125C82.7933 3.62891 83.1293 3.24219 83.559 2.96484C83.9926 2.68359 84.4613 2.54297 84.9652 2.54297C85.7894 2.54297 86.4301 2.81445 86.8871 3.35742C87.3441 3.90039 87.5726 4.67773 87.5726 5.68945V6.14062H83.2777C83.2933 6.76562 83.475 7.27148 83.8226 7.6582C84.1742 8.04102 84.6195 8.23242 85.1586 8.23242C85.5414 8.23242 85.8656 8.1543 86.1312 7.99805C86.3969 7.8418 86.6293 7.63477 86.8285 7.37695L87.4906 7.89258C86.9594 8.70898 86.1625 9.11719 85.1 9.11719ZM84.9652 3.43359C84.5277 3.43359 84.1605 3.59375 83.8636 3.91406C83.5668 4.23047 83.3832 4.67578 83.3129 5.25H86.4886V5.16797C86.4574 4.61719 86.309 4.19141 86.0433 3.89062C85.7777 3.58594 85.4183 3.43359 84.9652 3.43359Z" fill="white"/>
<path d="M90.0101 9H88.9261V0H90.0101V9Z" fill="white"/>
<path d="M95.7523 2.66016L95.7875 3.45703C96.2719 2.84766 96.9047 2.54297 97.6859 2.54297C99.0258 2.54297 99.7015 3.29883 99.7133 4.81055V9H98.6293V4.80469C98.6254 4.34766 98.5199 4.00977 98.3129 3.79102C98.1097 3.57227 97.7914 3.46289 97.3578 3.46289C97.0062 3.46289 96.6976 3.55664 96.432 3.74414C96.1664 3.93164 95.9594 4.17773 95.8109 4.48242V9H94.7269V2.66016H95.7523Z" fill="white"/>
<path d="M101.061 5.77148C101.061 5.15039 101.182 4.5918 101.424 4.0957C101.67 3.59961 102.01 3.2168 102.444 2.94727C102.881 2.67773 103.379 2.54297 103.938 2.54297C104.801 2.54297 105.498 2.8418 106.03 3.43945C106.565 4.03711 106.832 4.83203 106.832 5.82422V5.90039C106.832 6.51758 106.713 7.07227 106.475 7.56445C106.241 8.05273 105.903 8.43359 105.461 8.70703C105.024 8.98047 104.52 9.11719 103.95 9.11719C103.09 9.11719 102.393 8.81836 101.858 8.2207C101.327 7.62305 101.061 6.83203 101.061 5.84766V5.77148ZM102.151 5.90039C102.151 6.60352 102.313 7.16797 102.637 7.59375C102.965 8.01953 103.403 8.23242 103.95 8.23242C104.5 8.23242 104.938 8.01758 105.262 7.58789C105.586 7.1543 105.748 6.54883 105.748 5.77148C105.748 5.07617 105.582 4.51367 105.25 4.08398C104.922 3.65039 104.485 3.43359 103.938 3.43359C103.403 3.43359 102.971 3.64648 102.643 4.07227C102.315 4.49805 102.151 5.10742 102.151 5.90039Z" fill="white"/>
<path fill-rule="evenodd" clip-rule="evenodd" d="M43.9765 19.1516V21.2477H49.0799C48.9267 22.4316 48.5251 23.309 47.9228 23.9056C47.1788 24.6438 46.0204 25.4528 43.9881 25.4528C40.8462 25.4528 38.3891 22.9458 38.3891 19.8306C38.3891 16.7154 40.8462 14.2083 43.9881 14.2083C45.678 14.2083 46.9188 14.8641 47.8276 15.7195L49.3283 14.2316C48.0516 13.0256 46.3628 12.1006 43.9777 12.1006C39.6763 12.1006 36.062 15.5675 36.062 19.8422C36.062 24.1053 39.6763 27.5837 43.9777 27.5837C46.3036 27.5837 48.0516 26.834 49.4235 25.4168C50.8279 24.024 51.2655 22.0555 51.2655 20.4747C51.2655 19.9826 51.2306 19.5265 51.1482 19.1516H43.9765ZM57.0664 17.6056C54.2901 17.6056 52.0222 19.7017 52.0222 22.5825C52.0222 25.4528 54.2901 27.5617 57.0664 27.5617C59.8427 27.5617 62.1106 25.4528 62.1106 22.5825C62.1106 19.7017 59.8427 17.6056 57.0664 17.6056ZM63.0322 22.5825C63.0322 19.7017 65.3013 17.6056 68.0776 17.6056C70.8538 17.6056 73.1218 19.7017 73.1218 22.5825C73.1218 25.4528 70.8538 27.5617 68.0776 27.5617C65.3013 27.5617 63.0322 25.4528 63.0322 22.5825ZM65.2421 22.5825C65.2421 24.3629 66.5536 25.6048 68.0776 25.6048C69.5887 25.6048 70.9119 24.3629 70.9119 22.5825C70.9119 20.7916 69.6015 19.5613 68.0776 19.5613C66.5536 19.5613 65.2421 20.7904 65.2421 22.5825ZM54.2309 22.5825C54.2309 24.3629 55.5425 25.6048 57.0664 25.6048C58.5904 25.6048 59.9019 24.3629 59.9019 22.5825C59.9019 20.7916 58.5904 19.5613 57.0664 19.5613C55.5425 19.5613 54.2309 20.7904 54.2309 22.5825ZM93.2058 17.6056C95.8161 17.6056 97.0912 19.6669 97.5055 20.7788L97.7412 21.3417L91.0203 24.0948C91.5275 25.0895 92.3306 25.6037 93.453 25.6037C94.5765 25.6037 95.3553 25.0547 95.9229 24.2225L97.6355 25.3588C96.7001 26.7488 95.1288 27.5763 93.453 27.5617C90.5943 27.5617 88.468 25.3704 88.468 22.5825C88.468 19.6193 90.6175 17.6056 93.2058 17.6056ZM90.6535 22.442C90.5955 20.5211 92.1542 19.5381 93.2766 19.5381C94.1506 19.5381 94.8945 19.971 95.1429 20.5919L90.6535 22.442ZM87.4048 27.2692H85.1949V27.268V12.6275H87.4048V27.2692ZM81.569 18.7186H81.4982C81.0015 18.1337 80.0567 17.6067 78.8519 17.6067C76.3345 17.6067 74.0317 19.7969 74.0317 22.608C74.0317 25.3947 76.3345 27.5733 78.8519 27.5733C80.0451 27.5733 81.0015 27.0464 81.4982 26.437H81.5679V27.152C81.5679 29.0613 80.5407 30.0803 78.8868 30.0803C77.5404 30.0803 76.7012 29.1193 76.3588 28.3115L74.4322 29.1077C74.9893 30.4308 76.4529 32.0476 78.8868 32.0476C81.475 32.0476 83.6594 30.5365 83.6594 26.8595V17.9108H81.569V18.7186ZM76.2405 22.6068C76.2405 24.3409 77.516 25.606 79.04 25.606H79.0411C80.5523 25.606 81.7338 24.3409 81.7222 22.608C81.7222 20.8624 80.5407 19.5741 79.04 19.5741C77.5172 19.5741 76.2405 20.8508 76.2405 22.6068ZM107.854 12.6287H102.573V27.2692H104.783V21.7178H107.866C110.311 21.7178 112.71 19.9606 112.71 17.1727C112.71 14.3848 110.288 12.6287 107.854 12.6287ZM104.771 19.6797H107.902C109.555 19.6797 110.489 18.3101 110.489 17.161C110.465 15.755 109.308 14.6334 107.902 14.654H104.771V19.6797ZM121.535 17.5824C119.94 17.5824 118.286 18.2857 117.601 19.8201L119.562 20.6279C119.975 19.8201 120.755 19.5508 121.571 19.5508C122.705 19.5508 123.873 20.2298 123.886 21.4357V21.589C123.176 21.2181 122.384 21.025 121.582 21.026C119.467 21.026 117.328 22.1751 117.328 24.3177C117.328 26.2734 119.054 27.5385 120.991 27.5385C122.468 27.5385 123.295 26.8827 123.803 26.1097H123.873V27.246H126.001V21.6354C126.012 19.0355 124.051 17.5824 121.535 17.5824ZM119.538 24.3641C119.538 25.2427 120.542 25.606 121.263 25.606C122.539 25.606 123.72 24.645 123.886 23.2986C123.307 23.0177 122.846 22.8065 121.877 22.8065C120.791 22.8065 119.538 23.2394 119.538 24.3641ZM133.762 17.8992L131.234 24.248H131.163L128.54 17.8992H126.166L130.1 26.7771L127.856 31.7076H130.158L136.219 17.8992H133.762ZM116.124 27.2692H113.915V27.268V12.6275H116.124V27.2692Z" fill="white"/>
<path fill-rule="evenodd" clip-rule="evenodd" d="M0.884609 0.936542L14.3575 14.6091L18.3026 10.6141L1.87813 1.15126C1.46145 0.944666 1.15156 0.865742 0.884609 0.936542ZM0.0872375 1.76757L13.5601 15.425H13.559L0.100004 29.0976C0.030365 28.9687 0.00251029 28.6739 0.00134964 28.3954C-0.000971678 22.3813 0.000187714 17.7353 0.00123231 12.7884L0.00134964 12.4746L0.00366967 2.3537C0.00366967 2.10881 0.0175981 1.89524 0.0872375 1.76757ZM0.828897 29.9135L0.829942 29.9125C1.25056 29.9517 1.44892 29.9099 1.76671 29.7684L18.3026 20.2475L14.3714 16.2549L0.829942 29.9125L0.828897 29.9123V29.9135ZM15.1549 15.4099L19.3379 11.1735L24.822 14.3804C25.2596 14.6555 25.494 14.8667 25.5358 15.4111C25.5079 15.9113 25.2723 16.1794 24.8232 16.4708L19.31 19.6626L15.1549 15.4099Z" fill="white"/>
</svg>
